<?xml version="1.0" encoding="UTF-8"?>
<svg width="700pt" fill="#B0B0B0" height="700pt" version="1.1" viewBox="0 0 700 700" xmlns="http://www.w3.org/2000/svg">
 <path d="m363.07 280 95.199-95.199c3.7344-3.7344 3.7344-9.332 0-13.066s-9.332-3.7344-13.066 0l-95.199 95.199-95.199-97.066c-3.7344-1.8672-11.199-1.8672-14.934 0-3.7344 1.8672-1.8672 11.199 0 14.934l95.199 95.199-95.199 95.199c-3.7344 3.7344-3.7344 9.332 0 13.066 1.8672 3.7344 5.5977 3.7344 7.4648 3.7344 1.8672 0 5.6016 0 7.4648-1.8672l95.199-95.199 95.199 95.199c1.8672 1.8672 3.7344 1.8672 7.4648 1.8672 3.7344 0 5.6016 0 7.4648-1.8672 3.7344-3.7344 3.7344-9.332 0-13.066z"/>
</svg>
