<?xml version="1.0" encoding="UTF-8"?>
<svg width="700pt" fill="#fff" height="700pt" version="1.1" viewBox="0 0 700 700" xmlns="http://www.w3.org/2000/svg">
 <path d="m521.91 245.8c11.609 0 21.02 9.4102 21.02 21.02 0 5.1641-1.9023 10.148-5.3477 14.004l-70.461 78.855 10.852 107.18c1.1719 11.547-7.2422 21.859-18.793 23.027-3.6172 0.36719-7.2656-0.21094-10.594-1.6758l-98.582-43.441-98.582 43.441c-10.621 4.6797-23.027-0.13672-27.711-10.758-1.4648-3.3281-2.043-6.9766-1.6758-10.594l10.852-107.18-70.461-78.855c-7.7344-8.6562-6.9883-21.945 1.668-29.68 3.8516-3.4414 8.8398-5.3438 14.004-5.3438zm-171.88-175.8c36.938 0 66.879 29.941 66.879 66.879s-29.941 66.879-66.879 66.879c-36.934 0-66.879-29.941-66.879-66.879s29.945-66.879 66.879-66.879z" fill-rule="evenodd"/>
</svg>
